<?xml version="1.0" encoding="utf-8"?>
<!-- Generator: Adobe Illustrator 19.1.0, SVG Export Plug-In . SVG Version: 6.00 Build 0)  -->
<svg version="1.1" id="Layer_1" xmlns="http://www.w3.org/2000/svg" xmlns:xlink="http://www.w3.org/1999/xlink" x="0px" y="0px"
	 viewBox="0 0 380 220" style="enable-background:new 0 0 380 220;" xml:space="preserve">
<style type="text/css">
	.st0{display:none;}
	.st1{display:inline;}
	.st2{display:inline;fill:#FFFFFF;}
	.st3{display:none;fill:#F67D4B;}
	.st4{display:inline;fill:#F67D4B;}
	.st5{fill:none;}
	.st6{fill:#F67D4B;}
	.st7{font-family:'GTWalsheimLight';}
	.st8{font-size:171.4481px;}
	.st9{fill:#FBAB41;}
	.st10{fill:#FFFFFF;}
</style>
<g class="st0">
	<path class="st1" d="M241.9,76.3c-6.5,0-10.8,4.1-11.1,10.7l21.7,0C252.5,80.5,247.8,76.3,241.9,76.3z"/>
	<path class="st1" d="M182.7,76.8c-7.5,0-12.4,5.8-12.4,12.8c0,6.9,4.9,12.8,12.4,12.8c7.6,0,12.5-5.8,12.5-12.7
		C195.2,82.7,190.4,76.8,182.7,76.8z"/>
	<path class="st1" d="M300.9,76.8c-7.5,0-12.4,5.8-12.4,12.8c0,6.9,4.9,12.8,12.4,12.8c7.6,0,12.5-5.8,12.5-12.7
		C313.4,82.7,308.5,76.8,300.9,76.8z"/>
	<path class="st1" d="M334,25.4L252-22.4c-5.9-3.5-13.2-3.5-19.2-0.1l-82.4,47.2c-6,3.4-10.1,9.7-10.1,16.6V136
		c0,6.9,3.7,13.5,9.6,16.9l82.1,47.8c5.9,3.5,13.2,3.5,19.2,0.1l82.4-47.2c6-3.4,9.9-9.9,9.9-16.7l0.1-94.8
		C343.6,35.2,340,28.9,334,25.4z M225.6,58.7c-1.2-0.4-2.2-0.7-4-0.7c-2.9,0-6.2,0.6-6.2,7.3l0,7.8l10.2,0l0,4.1l-10.2,0l0,28.7
		l-4.8,0l0-28.7l-10.5,0l0,28.7l-4.8,0l0-6.9c-2.2,4.6-7,7.7-12.8,7.7c-10.2,0-17-7.9-16.9-17.2c0-9.3,6.8-17.2,17-17.2
		c5.7,0,10.6,3.1,12.7,7.7l0-7l15.3,0l0-7.3c0-11.3,6.5-12.1,10.5-12.1c2.2,0,3.6,0.4,4.6,0.9L225.6,58.7z M257.2,90.7l-26.3,0
		c0.2,6.4,3.5,11.9,11.5,11.9c5.4,0,8.5-2.7,9.6-6l4.9,0c-1.1,5.4-6.5,10.2-14.5,10.2c-11,0-16.4-7.9-16.4-17.3
		c0-9.8,5.9-17.1,16.2-17.1c8.5,0,15.2,6.4,15.2,14.7C257.5,88.1,257.5,89.2,257.2,90.7z M282.8,77.5c-1.3-0.4-1.9-0.4-3.1-0.5
		c-8,0-11.7,6.5-11.7,14.1l0,14.6l-4.8,0l0-32.8l4.8,0l0,7.7c1.9-5.3,6.8-8.1,11.7-8.1c1.2,0,2.3,0.2,3.1,0.5L282.8,77.5z
		 M300.8,106.8c-10.4,0-17.2-7.9-17.2-17.2c0-9.3,6.8-17.2,17.2-17.2c10.5,0,17.3,7.9,17.3,17.2C318.2,98.9,311.3,106.8,300.8,106.8
		z"/>
	<path class="st2" d="M210.6,65.8l0,7.3l-15.3,0l0,7c-2.1-4.7-7-7.7-12.7-7.7c-10.2,0-17,7.8-17,17.2c0,9.3,6.8,17.2,16.9,17.2
		c5.7,0,10.6-3.1,12.8-7.7l0,6.9l4.8,0l0-28.7l10.5,0l0,28.7l4.8,0l0-28.7l10.2,0l0-4.1l-10.2,0l0-7.8c0-6.7,3.3-7.3,6.2-7.3
		c1.8,0,2.8,0.2,4,0.7l0-4.2c-1-0.5-2.4-0.9-4.6-0.9C217,53.7,210.6,54.6,210.6,65.8z M182.7,102.3c-7.5,0-12.4-5.9-12.4-12.8
		c0-7,4.9-12.8,12.4-12.8c7.6,0,12.5,5.9,12.5,12.8C195.2,96.5,190.3,102.4,182.7,102.3z"/>
	<path class="st2" d="M242.3,72.5c-10.3,0-16.2,7.3-16.2,17.1c0,9.3,5.3,17.3,16.4,17.3c8.1,0,13.4-4.8,14.5-10.2l-4.9,0
		c-1.1,3.3-4.2,6-9.6,6c-8.1,0-11.3-5.6-11.5-11.9l26.3,0c0.2-1.6,0.2-2.7,0.2-3.6C257.5,78.9,250.8,72.5,242.3,72.5z M230.8,86.9
		c0.3-6.6,4.6-10.7,11.1-10.7c5.9,0,10.6,4.2,10.6,10.7L230.8,86.9z"/>
	<path class="st2" d="M268,80.6l0-7.7l-4.8,0l0,32.8l4.8,0l0-14.6c0-7.6,3.7-14.1,11.7-14.1c1.2,0,1.9,0.1,3.1,0.5l0-4.4
		c-0.8-0.4-1.9-0.5-3.1-0.5C274.7,72.5,269.9,75.4,268,80.6z"/>
	<path class="st2" d="M300.9,72.4c-10.4,0-17.2,7.8-17.2,17.2c0,9.3,6.8,17.2,17.2,17.2c10.5,0,17.3-7.9,17.4-17.2
		C318.2,80.3,311.4,72.4,300.9,72.4z M300.8,102.4c-7.5,0-12.4-5.9-12.4-12.8c0-7,4.9-12.8,12.4-12.8c7.6,0,12.5,5.9,12.5,12.8
		C313.3,96.5,308.4,102.4,300.8,102.4z"/>
</g>
<g class="st0">
	<path class="st1" d="M334.9,25.7l-82.1-47.8c-5.9-3.5-13.2-3.5-19.2-0.1L151.2,25c-6,3.4-10.1,9.7-10.1,16.6v94.7
		c0,6.9,3.7,13.5,9.6,16.9l82.1,47.8c5.9,3.5,13.2,3.5,19.2,0.1l82.4-47.2c6-3.4,9.9-9.9,9.9-16.7l0.1-94.8
		C344.5,35.5,340.8,29.1,334.9,25.7z M289.8,45.6c-2-0.7-3.7-1.1-6.6-1.1c-4.8,0-10.3,1-10.3,12.2v12.9h17v6.9h-17v47.8h-8V76.4
		h-20.6v0v20.4v0.1v20.4v6.9l-7.5,0l0-13.1h-0.9c-4.2,10.8-13.4,14.4-20.3,14.3c-16.8,0.1-28.1-13-28.1-28.5c0,0,0-0.1,0-0.1
		c0,0,0-0.1,0-0.1c0-15.5,11.3-28.6,28.1-28.5c6.9-0.1,16.1,3.5,20.3,14.3l0.9,0l0-13.1l28.1,0V57.4c0-18.7,10.7-20.2,17.3-20.2
		c3.6,0,5.9,0.6,7.6,1.5V45.6z"/>
	<path class="st1" d="M235.5,97.4c0-11.2-7.9-20.6-20.2-20.6c-12.1,0-19.9,9.4-19.9,20.6c0,0,0,0,0,0l0,0c0,0,0,0,0,0c0,0,0,0,0,0h0
		c0,0,0,0,0,0c0,11.2,7.9,20.6,19.9,20.6c12.3,0,20.2-9.4,20.2-20.6C235.5,97.6,235.5,97.6,235.5,97.4L235.5,97.4
		C235.5,97.5,235.5,97.5,235.5,97.4C235.5,97.5,235.5,97.5,235.5,97.4L235.5,97.4C235.5,97.5,235.5,97.5,235.5,97.4z"/>
	<path class="st2" d="M264.8,57.4v12.2l-28.1,0l0,13.1l-0.9,0c-4.2-10.8-13.4-14.4-20.3-14.3c-16.8-0.1-28.1,13-28.1,28.5
		c0,0,0,0.1,0,0.1c0,0,0,0.1,0,0.1c0,15.5,11.3,28.6,28.1,28.5c6.9,0.1,16.1-3.5,20.3-14.3h0.9l0,13.1l7.5,0v-6.9V96.9v-0.1V76.4v0
		h20.6v47.8h8V76.4h17v-6.9h-17V56.6c0-11.2,5.5-12.2,10.3-12.2c2.9,0,4.7,0.4,6.6,1.1v-6.9c-1.7-0.9-4.1-1.5-7.6-1.5
		C275.5,37.2,264.8,38.7,264.8,57.4z M235.5,97.5C235.5,97.5,235.5,97.5,235.5,97.5L235.5,97.5C235.5,97.6,235.5,97.6,235.5,97.5
		c0,11.3-7.9,20.7-20.2,20.7c-12.1,0-19.9-9.4-19.9-20.6c0,0,0,0,0,0h0c0,0,0,0,0,0c0,0,0,0,0,0l0,0c0,0,0,0,0,0
		c0-11.2,7.9-20.6,19.9-20.6C227.6,76.8,235.5,86.2,235.5,97.5C235.5,97.5,235.5,97.5,235.5,97.5L235.5,97.5
		C235.5,97.5,235.5,97.5,235.5,97.5z"/>
</g>
<path class="st3" d="M241.9,76.3c-6.5,0-10.8,4.1-11.1,10.7l21.7,0C252.5,80.5,247.8,76.3,241.9,76.3z"/>
<path class="st3" d="M182.7,76.8c-7.5,0-12.4,5.8-12.4,12.8c0,6.9,4.9,12.8,12.4,12.8c7.6,0,12.5-5.8,12.5-12.7
	C195.2,82.7,190.4,76.8,182.7,76.8z"/>
<path class="st3" d="M300.9,76.8c-7.5,0-12.4,5.8-12.4,12.8c0,6.9,4.9,12.8,12.4,12.8c7.6,0,12.5-5.8,12.5-12.7
	C313.4,82.7,308.5,76.8,300.9,76.8z"/>
<path class="st3" d="M334,25.4L252-22.4c-5.9-3.5-13.2-3.5-19.2-0.1l-82.4,47.2c-6,3.4-10.1,9.7-10.1,16.6V136
	c0,6.9,3.7,13.5,9.6,16.9l82.1,47.8c5.9,3.5,13.2,3.5,19.2,0.1l82.4-47.2c6-3.4,9.9-9.9,9.9-16.7l0.1-94.8
	C343.6,35.2,340,28.9,334,25.4z M225.6,58.7c-1.2-0.4-2.2-0.7-4-0.7c-2.9,0-6.2,0.6-6.2,7.3l0,7.8l10.2,0l0,4.1l-10.2,0l0,28.7
	l-4.8,0l0-28.7l-10.5,0l0,28.7l-4.8,0l0-6.9c-2.2,4.6-7,7.7-12.8,7.7c-10.2,0-17-7.9-16.9-17.2c0-9.3,6.8-17.2,17-17.2
	c5.7,0,10.6,3.1,12.7,7.7l0-7l15.3,0l0-7.3c0-11.3,6.5-12.1,10.5-12.1c2.2,0,3.6,0.4,4.6,0.9L225.6,58.7z M257.2,90.7l-26.3,0
	c0.2,6.4,3.5,11.9,11.5,11.9c5.4,0,8.5-2.7,9.6-6l4.9,0c-1.1,5.4-6.5,10.2-14.5,10.2c-11,0-16.4-7.9-16.4-17.3
	c0-9.8,5.9-17.1,16.2-17.1c8.5,0,15.2,6.4,15.2,14.7C257.5,88.1,257.5,89.2,257.2,90.7z M282.8,77.5c-1.3-0.4-1.9-0.4-3.1-0.5
	c-8,0-11.7,6.5-11.7,14.1l0,14.6l-4.8,0l0-32.8l4.8,0l0,7.7c1.9-5.3,6.8-8.1,11.7-8.1c1.2,0,2.3,0.2,3.1,0.5L282.8,77.5z
	 M300.8,106.8c-10.4,0-17.2-7.9-17.2-17.2c0-9.3,6.8-17.2,17.2-17.2c10.5,0,17.3,7.9,17.3,17.2C318.2,98.9,311.3,106.8,300.8,106.8z
	"/>
<g class="st0">
	<path class="st4" d="M235.5,97.4c0-11.2-7.9-20.6-20.2-20.6c-12.1,0-19.9,9.4-19.9,20.6c0,0,0,0,0,0l0,0c0,0,0,0,0,0c0,0,0,0,0,0h0
		c0,0,0,0,0,0c0,11.2,7.9,20.6,19.9,20.6c12.3,0,20.2-9.4,20.2-20.6C235.5,97.6,235.5,97.6,235.5,97.4L235.5,97.4
		C235.5,97.5,235.5,97.5,235.5,97.4C235.5,97.5,235.5,97.5,235.5,97.4L235.5,97.4C235.5,97.5,235.5,97.5,235.5,97.4z"/>
	<g class="st1">
		<path class="st5" d="M235.5,97.4c0-11.2-7.9-20.6-20.2-20.6c-12.1,0-19.9,9.4-19.9,20.6c0,0,0,0,0,0l0,0c0,0,0,0,0,0c0,0,0,0,0,0
			h0c0,0,0,0,0,0c0,11.2,7.9,20.6,19.9,20.6c12.3,0,20.2-9.4,20.2-20.6C235.5,97.6,235.5,97.6,235.5,97.4L235.5,97.4
			C235.5,97.5,235.5,97.5,235.5,97.4C235.5,97.5,235.5,97.5,235.5,97.4L235.5,97.4C235.5,97.5,235.5,97.5,235.5,97.4z"/>
		<path class="st6" d="M334.9,25.7l-82.1-47.8c-5.9-3.5-13.2-3.5-19.2-0.1L151.2,25c-6,3.4-10.1,9.7-10.1,16.6v94.7
			c0,6.9,3.7,13.5,9.6,16.9l82.1,47.8c5.9,3.5,13.2,3.5,19.2,0.1l82.4-47.2c6-3.4,9.9-9.9,9.9-16.7l0.1-94.8
			C344.5,35.5,340.8,29.1,334.9,25.7z M289.8,45.6c-2-0.7-3.7-1.1-6.6-1.1c-4.8,0-10.3,1-10.3,12.2v12.9h17v6.9h-17v47.8h-8V76.4
			h-20.6v0v20.4v0.1v20.4v6.9l-7.5,0l0-13.1h-0.9c-4.2,10.8-13.4,14.4-20.3,14.3c-16.8,0.1-28.1-13-28.1-28.5c0,0,0-0.1,0-0.1
			c0,0,0-0.1,0-0.1c0-15.5,11.3-28.6,28.1-28.5c6.9-0.1,16.1,3.5,20.3,14.3l0.9,0l0-13.1l28.1,0V57.4c0-18.7,10.7-20.2,17.3-20.2
			c3.6,0,5.9,0.6,7.6,1.5V45.6z"/>
	</g>
</g>
<path class="st0" d="M191,129.1l0-33.9c0-2.5-1.3-4.7-3.4-6l-29.3-17.1c-2.1-1.2-4.7-1.2-6.9,0L121.9,89c-2.1,1.2-3.6,3.5-3.6,5.9
	v33.8c0,2.5,1.3,4.8,3.4,6.1l29.3,17.1c2.1,1.2,4.7,1.2,6.9,0l29.5-16.9C189.5,133.9,191,131.6,191,129.1z"/>
<path class="st0" d="M355.9,37c4.2,0,6.7,0.5,9.5,1.6v-9.8c-2.5-1.2-5.8-2.1-10.9-2.1c-9.4,0-24.7,2.1-24.7,28.7v17.3l-40.1,0
	l0,18.7l-1.3,0c-6-15.4-19.1-20.5-28.9-20.4c-24-0.2-40.1,18.6-40.1,40.6c0,0,0,0.1,0,0.1c0,0,0,0.1,0,0.1
	c0,22.1,16.1,40.8,40.1,40.6c9.8,0.1,22.9-5,28.9-20.4h1.3l0,18.7l10.7,0v-9.8v-29.1v-0.1V82.6v0h29.4v68.2h11.4V82.5h24.2v-9.8
	h-24.2V54.3C341.1,38.4,349,37,355.9,37z M287.9,112.6C287.9,112.6,287.9,112.6,287.9,112.6L287.9,112.6c0,0.1,0,0.1,0,0.1
	c0,16-11.2,29.4-28.7,29.4c-17.2,0-28.4-13.4-28.4-29.4c0,0,0,0,0-0.1h0c0,0,0,0,0,0c0,0,0,0,0,0l0,0c0,0,0,0,0-0.1
	c0-16,11.2-29.4,28.4-29.4c17.5,0,28.7,13.4,28.7,29.4C287.9,112.5,287.9,112.6,287.9,112.6L287.9,112.6
	C287.9,112.6,287.9,112.6,287.9,112.6z"/>
<path class="st3" d="M191.7,129l0-33.9c0-2.5-1.3-4.7-3.4-6L159,72.1c-2.1-1.2-4.7-1.2-6.9,0l-29.5,16.9c-2.1,1.2-3.6,3.5-3.6,5.9
	v33.8c0,2.5,1.3,4.8,3.4,6.1l29.3,17.1c2.1,1.2,4.7,1.2,6.9,0l29.5-16.9C190.3,133.8,191.7,131.5,191.7,129z"/>
<path class="st3" d="M356.6,36.9c4.2,0,6.7,0.5,9.5,1.6v-9.8c-2.5-1.2-5.8-2.1-10.9-2.1c-9.4,0-24.7,2.1-24.7,28.7v17.3l-40.1,0
	l0,18.7l-1.3,0c-6-15.4-19.1-20.5-28.9-20.4c-24-0.2-40.1,18.6-40.1,40.6c0,0,0,0.1,0,0.1c0,0,0,0.1,0,0.1
	c0,22.1,16.1,40.8,40.1,40.6c9.8,0.1,22.9-5,28.9-20.4h1.3l0,18.7l10.7,0v-9.8v-29.1v-0.1V82.4v0h29.4v68.2h11.4V82.4h24.2v-9.8
	h-24.2V54.2C341.9,38.3,349.8,36.9,356.6,36.9z M288.7,112.5C288.7,112.5,288.7,112.5,288.7,112.5L288.7,112.5c0,0.1,0,0.1,0,0.1
	c0,16-11.2,29.4-28.7,29.4c-17.2,0-28.4-13.4-28.4-29.4c0,0,0,0,0-0.1h0c0,0,0,0,0,0c0,0,0,0,0,0l0,0c0,0,0,0,0-0.1
	c0-16,11.2-29.4,28.4-29.4c17.5,0,28.7,13.4,28.7,29.4C288.7,112.4,288.7,112.4,288.7,112.5L288.7,112.5
	C288.7,112.5,288.7,112.5,288.7,112.5z"/>
<rect x="89.2" y="11.5" class="st5" width="1.5" height="3"/>
<g class="st0">
</g>
<path class="st3" d="M149.4,21.5c4.2,0,6.7,0.5,9.5,1.6v-9.8c-2.5-1.2-5.8-2.1-10.9-2.1c-9.4,0-24.7,2.1-24.7,28.7v17.3l-40.1,0
	l0,18.7l-1.3,0c-6-15.4-19.1-20.5-28.9-20.4c-24-0.2-40.1,18.6-40.1,40.6c0,0,0,0.1,0,0.1c0,0,0,0.1,0,0.1
	c0,22.1,16.1,40.8,40.1,40.6c9.8,0.1,22.9-5,28.9-20.4h1.3l0,18.7l10.7,0v-9.8V96.3v-0.1V67.1v0h29.4v68.2h11.4V67h24.2v-9.8h-24.2
	V38.8C134.6,22.9,142.5,21.5,149.4,21.5z M81.4,97.1C81.4,97.1,81.4,97.2,81.4,97.1L81.4,97.1c0,0.1,0,0.1,0,0.1
	c0,16-11.2,29.4-28.7,29.4c-17.2,0-28.4-13.4-28.4-29.4c0,0,0,0,0-0.1h0c0,0,0,0,0,0c0,0,0,0,0,0l0,0c0,0,0,0,0-0.1
	c0-16,11.2-29.4,28.4-29.4C70.2,67.6,81.4,81,81.4,97C81.4,97,81.4,97.1,81.4,97.1L81.4,97.1C81.4,97.1,81.4,97.1,81.4,97.1z"/>
<text transform="matrix(1.0506 0 0 1 148.6676 134.7661)" class="st3 st7 st8">e</text>
<text transform="matrix(1 0 0 1 227.5914 134.6445)" class="st3 st7 st8">r</text>
<text transform="matrix(1 0 0 1 280.2838 135.1186)" class="st3 st7 st8">o</text>
<g>
	<g>
		<path class="st9" d="M149.1,23.3c4.2,0,6.7,0.5,9.5,1.6V15c-2.5-1.2-5.8-2.1-10.9-2.1c-9.4,0-24.7,2.1-24.7,28.7V59l-40.1,0
			l0,18.7l-1.3,0c-6-15.4-19.1-20.5-28.9-20.4c-24-0.2-40.1,18.6-40.1,40.6c0,0,0,0.1,0,0.1c0,0,0,0.1,0,0.1
			c0,22.1,16.1,40.8,40.1,40.6c9.8,0.1,22.9-5,28.9-20.4h1.3l0,18.7l10.7,0v-9.8V98V98V68.8v0H123v68.2h11.4V68.8h24.2V59h-24.2
			V40.6C134.4,24.7,142.3,23.3,149.1,23.3z M81.2,98.9C81.2,98.9,81.2,98.9,81.2,98.9L81.2,98.9c0,0.1,0,0.1,0,0.1
			c0,16-11.2,29.4-28.7,29.4C35.3,128.4,24,115,24,99c0,0,0,0,0-0.1h0c0,0,0,0,0,0c0,0,0,0,0,0l0,0c0,0,0,0,0-0.1
			c0-16,11.2-29.4,28.4-29.4c17.5,0,28.7,13.4,28.7,29.4C81.2,98.8,81.2,98.8,81.2,98.9L81.2,98.9C81.2,98.8,81.2,98.9,81.2,98.9z"
			/>
	</g>
	<g>
		<path class="st9" d="M168.5,101c0.5,14.7,8.5,27.6,28.1,27.6c13.1,0,20.7-6.3,23.4-13.9h11.9c-2.7,12.5-15.7,23.7-35.3,23.7
			c-26.8,0-39.8-18.3-39.8-39.9c0-22.6,14.2-39.6,39.3-39.6c20.7,0,36.9,14.7,36.9,33.9c0,2.1,0,4.6-0.5,8.2H168.5z M168.6,92.3
			h52.8c0-14.9-11.3-24.7-25.8-24.7C179.8,67.6,169.4,77,168.6,92.3z"/>
	</g>
	<g>
		<path class="st9" d="M287,70.9c-2.9-0.9-4.5-1-7.2-1c-18.5,0-27.1,15.1-27.1,32.7v33.8h-11.1v-76h11.1v17.8
			c4.5-12.2,15.6-18.9,27.1-18.9c2.7,0,5.3,0.3,7.2,1.2V70.9z"/>
	</g>
	<g>
		<path class="st9" d="M287.4,99c0-21.6,15.8-39.8,39.8-39.8c24.3,0,40.1,18.2,40.1,39.8c0,21.4-15.8,39.8-40.1,39.8
			C303.2,138.7,287.4,120.4,287.4,99z M356.2,99c0-16.1-11.3-29.7-29-29.7c-17.3,0-28.6,13.5-28.6,29.7c0,15.9,11.3,29.5,28.6,29.5
			C344.9,128.5,356.2,114.9,356.2,99z"/>
	</g>
	<g>
		<path class="st10" d="M13.2,157.6h8.2v48.3h-8.2V157.6z"/>
		<path class="st10" d="M59.3,192v-34.4h7.9v48.3h-8.7l-19.1-34.4v34.4h-7.9v-48.3h8.7L59.3,192z"/>
		<path class="st10" d="M83.1,190.1c0,6.3,3.9,9.9,9.4,9.9c4.4,0,7.9-2.8,7.9-7.2c0-4.9-4.3-6.5-7.7-7.7
			c-8.8-3.1-15.9-5.8-15.9-15.5c0-8,6.9-13.2,15-13.2c8.7,0,15.4,6.1,15.4,15.1h-7.9c0-4.8-2.8-8-7.2-8c-3.9,0-7.2,2.1-7.2,6.1
			c0,3.9,3.4,5.8,7,7.1c7.5,2.7,16.6,5.9,16.6,15.1c0,9.9-7.6,15.2-16.6,15.2c-8.8,0-16.6-6.1-16.6-17H83.1z"/>
		<path class="st10" d="M116.6,157.6h17.3c10.4,0,17,7.8,17,16.9c0,9.1-6.7,16.9-17,16.9h-9.4v14.5h-7.9V157.6z M143,174.5
			c0-5.3-3.6-9.8-9.1-9.8h-9.4v19.6h9.4C139.4,184.3,143,179.8,143,174.5z"/>
		<path class="st10" d="M165.7,164.7v13.7h19.9v7.1h-19.9v13.3h19.9v7.1h-27.9v-48.3h27.9v7.1H165.7z"/>
		<path class="st10" d="M241.2,190.4c-2.1,9.4-11,16.7-22.9,16.7c-15.8,0-25.4-11.8-25.4-25.4c0-13.1,9.4-25.3,24.6-25.3
			c14.4,0,22.2,8.3,23.7,18.8h-8.3c-1.2-6.6-6.4-11.7-14.4-11.7c-11.1,0-17.5,8.7-17.5,18.1c0,9.9,6.6,18.3,18.3,18.3
			c5.6,0,11.6-4.1,13.2-9.6H241.2z"/>
		<path class="st10" d="M255,164.7h-11.9v-7.1H275v7.1h-12v41.2H255V164.7z"/>
		<path class="st10" d="M275.2,181.8c0-13.1,9.5-25.3,25-25.3c15.5,0,25,12.2,25,25.3c0,13.1-9.5,25.3-25,25.3
			C284.6,207.1,275.2,194.9,275.2,181.8z M316.8,181.8c0-9.4-6.3-18.2-16.6-18.2c-10.3,0-16.6,8.8-16.6,18.2
			c0,9.4,6.3,18.2,16.6,18.2C310.4,200,316.8,191.1,316.8,181.8z"/>
		<path class="st10" d="M332.8,157.6h17.3c10.3,0,17,7.8,17,16.9c0,6.9-3.9,13-10.2,15.7l9.6,15.7h-9l-8.8-14.5h-7.9v14.5h-7.9
			V157.6z M359.2,174.5c0-5.3-3.6-9.8-9.1-9.8h-9.4v19.6h9.4C355.6,184.3,359.2,179.8,359.2,174.5z"/>
	</g>
</g>
</svg>
