<?xml version="1.0" encoding="utf-8"?>
<!-- Generator: Adobe Illustrator 19.1.0, SVG Export Plug-In . SVG Version: 6.00 Build 0)  -->
<svg version="1.1" id="Layer_1" xmlns="http://www.w3.org/2000/svg" xmlns:xlink="http://www.w3.org/1999/xlink" x="0px" y="0px"
	 viewBox="0 0 200 75" style="enable-background:new 0 0 200 75;" xml:space="preserve">
<style type="text/css">
	.st0{fill:#FBAB42;}
	.st1{fill:#FFFFFF;}
</style>
<g>
	<g>
		<path class="st0" d="M53.6,4c1.6,0,2.6,0.2,3.7,0.6V0.8C56.3,0.3,55,0,53,0c-3.6,0-9.5,0.8-9.5,11.1v6.7H28V25h-0.5
			c-2.3-5.9-7.4-7.9-11.2-7.9C7.1,17.1,0.8,24.3,0.8,32.8v0v0c0,8.5,6.2,15.8,15.5,15.7c3.8,0,8.8-1.9,11.2-7.9H28v7.2h4.1v-3.8
			V32.9l0,0V21.6l0,0h11.4v26.3h4.4V21.6h9.3v-3.8h-9.3v-7.1C47.9,4.6,50.9,4,53.6,4z M27.3,33.2L27.3,33.2L27.3,33.2
			C27.3,33.3,27.3,33.3,27.3,33.2c0,6.2-4.3,11.4-11.1,11.4c-6.6,0-11-5.2-11-11.4c0,0,0,0,0,0l0,0l0,0l0,0l0,0c0,0,0,0,0,0
			c0-6.2,4.3-11.4,11-11.4C23,21.8,27.3,27,27.3,33.2C27.3,33.2,27.3,33.2,27.3,33.2L27.3,33.2C27.3,33.2,27.3,33.2,27.3,33.2z"/>
	</g>
	<g>
		<path class="st0" d="M61.1,34c0.2,5.7,3.3,10.7,10.9,10.7c5.1,0,8-2.4,9-5.4h4.6c-1,4.8-6.1,9.2-13.6,9.2
			c-10.4,0-15.4-7.1-15.4-15.4c0-8.7,5.5-15.3,15.2-15.3c8,0,14.3,5.7,14.3,13.1c0,0.8,0,1.8-0.2,3.2L61.1,34z M61.1,30.7h20.4
			c0-5.8-4.4-9.5-10-9.5C65.4,21.1,61.4,24.8,61.1,30.7z"/>
	</g>
	<g>
		<path class="st0" d="M106.8,22.4c-1.1-0.3-1.7-0.4-2.8-0.4c-7.1,0-10.5,5.8-10.5,12.6v13.1h-4.3V18.3h4.3v6.9
			c1.7-4.7,6-7.3,10.5-7.3c1,0,2,0.1,2.8,0.5V22.4z"/>
	</g>
	<g>
		<path class="st0" d="M107,33.3c0-8.3,6.1-15.4,15.4-15.4c9.4,0,15.5,7,15.5,15.4c0,8.3-6.1,15.4-15.5,15.4
			C113.1,48.6,107,41.5,107,33.3z M133.6,33.3c0-6.2-4.4-11.5-11.2-11.5c-6.7,0-11,5.2-11,11.5c0,6.1,4.4,11.4,11,11.4
			C129.2,44.7,133.6,39.4,133.6,33.3z"/>
	</g>
	<g>
		<path class="st1" d="M7.2,55.9c6.2,0,9.7,4.6,9.7,9.3c0,4.7-3.5,9.3-9.7,9.3h-6V55.9H7.2z M4.2,58.6v13.2h3c4.2,0,6.5-3.3,6.5-6.6
			c0-3.3-2.4-6.6-6.5-6.6H4.2z"/>
		<path class="st1" d="M22.9,58.6v5.3h7.7v2.7h-7.7v5.1h7.7v2.7H19.8V55.9h10.8v2.7H22.9z"/>
		<path class="st1" d="M41.1,74.5h-2.2l-6.4-18.7h3.2L40,69.5l4.3-13.6h3.2L41.1,74.5z"/>
		<path class="st1" d="M49.5,55.9h3.2v18.7h-3.2V55.9z"/>
		<path class="st1" d="M74.3,68.6c-0.8,3.6-4.3,6.4-8.8,6.4c-6.1,0-9.8-4.6-9.8-9.8c0-5.1,3.6-9.8,9.5-9.8c5.5,0,8.6,3.2,9.2,7.2
			h-3.2c-0.5-2.6-2.5-4.5-5.5-4.5c-4.3,0-6.7,3.4-6.7,7c0,3.8,2.5,7.1,7.1,7.1c2.2,0,4.5-1.6,5.1-3.7H74.3z"/>
		<path class="st1" d="M80.3,58.6v5.3H88v2.7h-7.7v5.1H88v2.7H77.3V55.9H88v2.7H80.3z"/>
		<path class="st1" d="M109.2,66.7h-7.7v7.9h-3.1V55.9h3.1v8h7.7v-8h3.1v18.7h-3.1V66.7z"/>
		<path class="st1" d="M116.2,55.9h3.2v18.7h-3.2V55.9z"/>
		<path class="st1" d="M125.5,68.4c0,2.4,1.5,3.8,3.6,3.8c1.7,0,3.1-1.1,3.1-2.8c0-1.9-1.7-2.5-3-3c-3.4-1.2-6.2-2.2-6.2-6
			c0-3.1,2.7-5.1,5.8-5.1c3.4,0,5.9,2.4,5.9,5.8h-3.1c0-1.8-1.1-3.1-2.8-3.1c-1.5,0-2.8,0.8-2.8,2.4c0,1.5,1.3,2.2,2.7,2.7
			c2.9,1,6.4,2.3,6.4,5.8c0,3.8-2.9,5.9-6.4,5.9c-3.4,0-6.4-2.4-6.4-6.6H125.5z"/>
		<path class="st1" d="M140.3,58.6h-4.6v-2.7H148v2.7h-4.6v15.9h-3.1V58.6z"/>
		<path class="st1" d="M148,65.2c0-5.1,3.7-9.8,9.6-9.8c6,0,9.6,4.7,9.6,9.8c0,5.1-3.7,9.8-9.6,9.8C151.7,75,148,70.3,148,65.2z
			 M164.1,65.2c0-3.6-2.5-7-6.4-7c-4,0-6.4,3.4-6.4,7c0,3.6,2.5,7,6.4,7C161.7,72.3,164.1,68.8,164.1,65.2z"/>
		<path class="st1" d="M170.3,55.9h6.7c4,0,6.6,3,6.6,6.5c0,2.7-1.5,5-3.9,6l3.7,6.1h-3.5l-3.4-5.6h-3.1v5.6h-3.1V55.9z M180.5,62.4
			c0-2.1-1.4-3.8-3.5-3.8h-3.6v7.6h3.6C179.1,66.2,180.5,64.5,180.5,62.4z"/>
		<path class="st1" d="M189.9,74.5h-3.4l3.7-7.5l-7-11.2h3.5l5,8l4-8h3.4L189.9,74.5z"/>
	</g>
	<g>
		<path class="st1" d="M192.7,31.8c5.2-14.9-5.8-31-21.6-31.8c-7.8-0.4-14.3,2.4-19.6,8.1c0,0,0,0,0,0c-0.1,0.1-0.2,0.1-0.3,0
			l-4.9-3c-0.3-0.2-0.6,0.1-0.5,0.3l1.5,11.1c0.1,0.4,0.5,0.7,0.9,0.5l10.6-3.9c0.3-0.1,0.3-0.5,0.1-0.6l-4.3-2.6
			c-0.1-0.1-0.1-0.2,0-0.3l0,0c7.7-8.2,20.7-8.7,29-1.3c9.2,8.2,9.4,22.5,0.4,31c-8.1,7.6-21,7.4-28.9-0.5c-2.7-2.7-4.6-6-5.6-9.7
			c-0.2-0.8-0.6-1.3-1.4-1.4c-1.3-0.2-2.2,0.9-1.8,2.3c2,7.2,6.3,12.5,12.9,15.8c4.9,2.4,10.1,3.1,15.4,1.9
			C183.6,46,189.7,40.6,192.7,31.8z"/>
		<g>
			<g>
				<path class="st1" d="M177.1,34.9l-10-9.5v-12c0-0.8,0.7-1.5,1.5-1.5l0,0c0.8,0,1.5,0.7,1.5,1.5v10.7l9.1,8.6
					c0.6,0.6,0.6,1.5,0.1,2.1v0C178.7,35.4,177.7,35.5,177.1,34.9z"/>
				<path class="st1" d="M178.2,35.6c-0.5,0-0.9-0.2-1.3-0.5l-10.1-9.6V13.4c0-1,0.8-1.9,1.9-1.9s1.9,0.8,1.9,1.9V24l9,8.5
					c0.7,0.7,0.8,1.9,0.1,2.6C179.1,35.4,178.6,35.6,178.2,35.6z M167.4,25.3l9.9,9.4c0.5,0.4,1.2,0.4,1.7,0c0.4-0.5,0.4-1.2,0-1.7
					l-9.2-8.7V13.4c0-0.7-0.5-1.2-1.2-1.2s-1.2,0.5-1.2,1.2V25.3z"/>
			</g>
		</g>
	</g>
</g>
</svg>
